<svg version="1.1" id="Layer_1" xmlns="http://www.w3.org/2000/svg" xmlns:xlink="http://www.w3.org/1999/xlink" x="0px" y="0px"
	 width="100%" viewBox="0 0 1024 592" enable-background="new 0 0 1024 592" xml:space="preserve">
<path fill="#000000" opacity="1.000000" stroke="none" 
	d="
M372.437500,593.000000 
	C373.515961,583.839539 379.747467,577.734131 386.075104,571.842468 
	C394.754578,563.761047 404.578125,557.118164 414.355743,550.460999 
	C416.787445,548.805359 418.553802,546.877136 419.843262,544.224915 
	C425.665436,532.249268 431.153412,520.128967 436.769043,506.480194 
	C429.701050,515.435608 424.011139,523.716553 416.953552,530.858582 
	C413.667816,534.183655 410.222595,537.303711 406.212616,539.775757 
	C402.649475,541.972229 398.817047,542.725464 394.721100,542.289124 
	C388.775879,541.655701 384.735718,537.737732 384.833679,531.754089 
	C385.084229,516.447815 393.520477,505.658844 405.065521,496.823486 
	C407.083160,495.279358 409.510468,495.617371 411.706116,496.833435 
	C415.032013,498.675507 415.343231,501.464783 412.354095,503.862000 
	C407.511383,507.745697 403.257050,512.168701 399.576447,517.153442 
	C396.548767,521.253906 394.723785,525.865601 393.915466,530.877014 
	C393.149078,535.628418 395.574127,537.814331 400.302124,536.531250 
	C403.618164,535.631287 406.093781,533.365356 408.520233,531.039368 
	C419.762085,520.262695 428.731232,507.579041 438.412048,495.493103 
	C439.987762,493.525909 441.473419,491.463898 444.263855,491.214233 
	C450.848816,490.625092 453.621704,494.562958 450.923279,500.536133 
	C445.316406,512.947388 439.757446,525.380249 433.632782,539.020264 
	C443.480743,531.997803 451.506104,524.964722 458.763275,516.950806 
	C469.218445,505.405334 481.958710,498.165985 497.893494,497.495453 
	C499.526978,497.426697 501.243927,496.989807 502.590912,498.867035 
	C501.388184,501.474915 498.868805,500.959778 496.706543,501.288025 
	C484.266052,503.176697 473.954437,508.894287 466.768829,519.264832 
	C460.348328,528.531128 465.003326,537.636780 476.296936,538.749268 
	C497.362366,540.824158 516.500916,535.086304 534.401184,524.366455 
	C535.114746,523.939148 535.816528,523.478516 536.467285,522.962158 
	C541.206482,519.201599 546.283447,515.410767 545.744263,508.530182 
	C545.200806,501.594452 539.385925,499.358429 534.010742,496.941467 
	C524.728760,492.767761 515.043030,489.681610 505.475494,486.277344 
	C501.212891,484.760681 497.127777,482.910858 493.551208,480.094330 
	C486.959015,474.902924 485.928467,468.092438 490.729614,461.172394 
	C494.580048,455.622681 500.136658,452.137573 506.184998,449.699646 
	C520.939758,443.752472 535.947266,438.709991 552.272766,441.752289 
	C558.687683,442.947723 562.017639,446.393921 561.909851,451.399841 
	C561.780579,457.409698 555.115784,466.189117 550.295105,466.652039 
	C550.040283,466.676514 549.749023,466.321564 549.396973,466.092682 
	C548.774963,463.633148 550.979370,462.700989 552.183899,461.288422 
	C554.261719,458.851746 556.803284,456.437561 555.444336,452.947449 
	C554.050476,449.367584 550.449097,448.744812 547.125610,448.407288 
	C538.009705,447.481537 529.216431,449.353394 520.591797,452.054169 
	C513.883850,454.154785 507.518768,457.066254 501.829376,461.261230 
	C495.631775,465.830933 495.768372,469.848663 502.772156,473.029022 
	C512.771606,477.569733 523.048584,481.499664 533.209717,485.683807 
	C537.723511,487.542450 541.742920,490.165710 545.418030,493.368835 
	C554.438110,501.230377 555.240051,509.927063 547.482849,519.072754 
	C541.350403,526.302979 533.557129,531.477844 525.179932,535.698364 
	C509.718445,543.487976 493.717041,549.384094 475.963531,548.278259 
	C473.976746,548.154541 471.978699,547.945251 470.027313,547.563721 
	C458.396881,545.289856 455.007599,541.798462 453.300018,530.407410 
	C451.134918,530.172852 450.095093,531.930237 448.839691,533.103088 
	C443.111572,538.454529 437.323242,543.730713 430.642273,547.888977 
	C428.768982,549.054932 428.125305,550.889832 427.225372,552.657166 
	C420.357208,566.145630 414.366180,580.120239 405.130463,592.685791 
	C401.638702,593.000000 398.277435,593.000000 394.502808,592.656982 
	C401.753387,582.174744 407.460968,571.012085 411.733917,559.041992 
	C402.237885,565.653625 393.174286,572.598755 385.423370,581.058472 
	C382.312347,584.454041 378.930115,587.834717 379.000000,593.000000 
	C376.958344,593.000000 374.916656,593.000000 372.437500,593.000000 
z"/>
<path fill="#000000" opacity="1.000000" stroke="none" 
	d="
M439.266876,130.427734 
	C449.854797,96.263405 467.622864,66.554169 490.009064,39.442772 
	C496.055725,32.119827 502.228180,24.892305 509.078217,18.286448 
	C510.374084,17.036751 511.481323,15.508104 514.244568,14.755141 
	C558.478455,61.801052 590.716797,114.559311 592.373474,181.719467 
	C589.767334,179.426544 590.336609,176.121078 590.041992,173.256104 
	C587.072754,144.391281 576.786377,117.995056 562.924133,92.868713 
	C550.550964,70.441444 535.221985,50.099907 517.797546,31.344704 
	C513.208191,26.404789 513.214661,26.578485 508.773438,31.537607 
	C486.613220,56.282097 467.846008,83.250366 454.737488,113.915634 
	C444.282928,138.372391 438.004639,163.793671 438.480957,190.524887 
	C438.651794,200.114471 439.307617,209.789444 442.326538,219.701462 
	C442.823975,218.386353 443.110809,217.647186 443.383972,216.903000 
	C447.911377,204.568024 455.439636,196.156906 469.839447,197.141541 
	C479.500702,197.802139 486.204132,192.618927 492.299561,186.186768 
	C498.068604,180.099014 499.036163,174.501404 495.282471,167.060257 
	C492.737030,162.014313 489.549438,157.296585 486.822815,152.336563 
	C483.738434,146.725662 481.404327,140.906342 482.576660,134.231964 
	C482.793304,132.998474 482.360870,131.604599 482.043610,130.330658 
	C477.037933,110.229248 489.463623,91.456032 509.790131,88.450348 
	C527.938110,85.766800 545.582642,100.119133 546.039185,119.218330 
	C546.378479,133.410568 545.885071,147.899185 536.066772,159.849472 
	C535.019653,161.123978 534.269775,162.654099 533.456055,164.107101 
	C527.969116,173.904968 529.251770,180.814590 537.315857,188.717712 
	C543.521118,194.799103 550.692871,197.735779 559.323364,197.358566 
	C571.233154,196.838013 578.078491,203.536026 582.471558,213.699036 
	C582.932861,214.766235 583.483276,215.797897 584.047974,216.815170 
	C584.179749,217.052582 584.538696,217.163895 585.129395,217.557037 
	C588.761780,207.610016 589.380920,197.155762 591.279602,186.658127 
	C593.771790,188.028610 592.976257,190.005249 592.986267,191.636383 
	C593.110107,211.999115 589.316040,231.686737 582.576660,250.839172 
	C581.702026,253.324768 581.604492,255.373169 582.862610,257.904266 
	C587.525818,267.285858 588.970459,277.549072 590.279541,287.799927 
	C590.620728,290.471497 590.722351,293.211304 592.941956,295.086090 
	C604.011597,304.436005 614.801208,314.182800 628.125122,320.405609 
	C643.697266,327.678436 654.546692,325.392151 665.886047,312.384186 
	C666.640320,311.518890 667.293335,310.504059 667.751038,309.453186 
	C669.064514,306.437347 670.615845,303.056793 674.407898,303.941803 
	C678.483276,304.892914 682.862061,306.201538 684.321960,311.216400 
	C685.479431,315.192200 685.238953,319.107147 684.446045,323.076111 
	C683.697510,326.823334 685.166504,328.577911 689.027649,327.733856 
	C692.114380,327.059143 695.187805,326.280273 698.206421,325.350525 
	C700.876282,324.528290 703.482727,323.335815 704.789673,327.397156 
	C711.482178,323.363037 716.962524,318.778168 722.261780,314.000885 
	C749.913147,289.072998 769.084778,258.310211 783.604858,224.390457 
	C787.405273,215.512360 790.734009,206.449738 793.891846,197.316589 
	C795.257629,193.366470 794.428040,191.435974 790.300415,190.547958 
	C762.186157,184.499603 733.865356,181.316147 705.026245,182.812866 
	C683.070496,183.952332 661.719788,187.611649 641.095215,195.281693 
	C627.420044,200.367340 614.806213,207.414124 602.985168,215.929199 
	C601.559692,216.956009 600.355896,218.490738 597.855347,218.343643 
	C598.813232,215.263275 601.445374,213.966217 603.471619,212.302979 
	C622.860962,196.387329 644.945679,185.923859 669.196777,179.737000 
	C704.635498,170.695984 740.326904,170.599899 776.231628,176.215775 
	C786.272583,177.786301 796.193298,179.903854 806.078491,182.249969 
	C809.240356,183.000397 810.147827,184.337219 809.277039,187.494354 
	C795.528809,237.339493 773.332703,282.396790 735.361694,318.585419 
	C717.577576,335.534729 697.034302,347.867218 673.675354,355.407806 
	C669.332764,356.809601 666.515442,358.604889 665.890503,363.639404 
	C665.328064,368.170746 661.936340,371.130585 657.968079,373.360809 
	C648.755615,378.538391 641.659485,386.400330 632.072876,393.102081 
	C645.264465,395.123322 657.163879,395.178772 669.070618,394.412079 
	C716.359802,391.367065 754.470276,368.873871 788.608643,337.927734 
	C804.219177,323.777008 818.213318,308.179199 830.983521,291.454712 
	C832.176453,289.892456 833.631592,288.453033 834.108093,285.915070 
	C818.985596,275.635529 802.853943,266.849365 786.082153,258.950226 
	C787.183472,256.959869 788.369141,257.588715 789.369568,257.945679 
	C807.450317,264.396759 824.944885,272.135162 841.644775,281.645691 
	C844.423767,283.228271 844.962097,284.849365 843.228333,287.641602 
	C816.059875,331.396851 781.655090,367.577271 734.636169,390.185486 
	C702.282166,405.742401 668.177429,409.807770 632.833435,403.684753 
	C629.884766,403.173920 626.881775,402.889679 623.991943,402.154449 
	C621.704407,401.572449 619.848328,401.892517 617.860779,403.109619 
	C606.466125,410.087372 594.206177,412.676605 580.721924,412.539062 
	C534.561523,412.068176 488.392578,412.198181 442.229034,412.469421 
	C431.154938,412.534454 421.101318,409.835419 411.793152,404.326477 
	C407.879608,402.010315 404.370514,401.716949 400.051025,402.566864 
	C368.890869,408.697906 338.057495,407.667938 307.984528,396.872742 
	C282.749420,387.814209 260.496094,373.656586 240.349060,356.023346 
	C217.959305,336.427155 199.360458,313.721436 183.714523,288.476959 
	C181.460495,284.840118 182.177063,283.109924 185.662903,281.108643 
	C201.613525,271.951080 218.328308,264.525055 235.665588,258.454651 
	C236.752808,258.073975 237.902756,257.857025 239.038544,257.643860 
	C239.255463,257.603119 239.542969,257.938416 240.559235,258.583466 
	C224.013672,267.161011 207.470047,274.903290 192.879608,285.512878 
	C192.392380,287.557343 193.516342,288.716064 194.385345,289.866974 
	C221.924103,326.337799 254.022949,357.596527 295.486450,378.114532 
	C325.489502,392.961273 357.205688,397.412781 390.260559,393.647675 
	C391.044678,393.558380 391.801422,393.229095 392.467773,393.040863 
	C392.942383,391.021301 391.446442,390.506104 390.485870,389.742218 
	C382.934540,383.736328 376.018372,376.911896 367.499664,372.149750 
	C363.770355,370.065002 361.606384,366.522949 361.098846,362.456268 
	C360.618652,358.608276 358.595154,357.149719 355.225281,356.127411 
	C334.057312,349.705444 315.018951,339.324829 298.192322,324.941956 
	C270.687073,301.431274 250.889969,272.256378 235.916534,239.625092 
	C228.336029,223.105057 222.135590,206.065079 217.527832,188.436584 
	C216.419800,184.197449 217.670639,182.736038 221.449707,181.821732 
	C236.358704,178.214645 251.435791,175.476562 266.680817,173.978882 
	C294.174805,171.277863 321.598389,171.802505 348.704773,177.725357 
	C376.951111,183.897293 402.964813,194.895157 425.013977,214.107346 
	C426.269470,215.201309 428.258087,215.895660 428.218903,218.152222 
	C426.338470,218.776001 425.368591,217.355637 424.253510,216.523880 
	C399.009247,197.693451 370.330780,187.950668 339.332977,184.229782 
	C304.889465,180.095261 270.865997,182.733276 237.152176,190.419647 
	C230.699219,191.890839 230.792297,192.008408 232.962173,198.400574 
	C244.184799,231.460983 259.403259,262.434204 281.161285,289.918884 
	C292.174377,303.830597 304.699127,316.243744 319.394592,326.330139 
	C320.064636,326.790070 320.826813,327.115784 321.902252,327.696259 
	C324.029449,323.684418 327.080597,324.563538 330.392212,325.919037 
	C334.272797,327.507385 338.415283,327.976868 342.574524,328.302155 
	C342.574524,323.698212 342.435486,319.295563 342.608215,314.905151 
	C342.846710,308.842743 346.390717,304.837463 352.160767,303.876434 
	C354.955902,303.410919 357.440887,304.481995 358.302490,307.066589 
	C360.165894,312.656403 364.684540,315.385559 369.170288,318.282776 
	C370.849640,319.367401 372.867401,320.201935 374.081848,321.682800 
	C378.285980,326.809021 383.292236,325.672913 388.578674,324.194275 
	C402.577576,320.278656 413.715668,311.626129 425.122925,303.127991 
	C433.313599,297.026031 437.819397,289.908417 438.393555,279.575012 
	C438.835114,271.627899 441.248596,263.872040 444.929291,256.666290 
	C446.295135,253.992416 445.453064,251.559769 444.483124,248.996613 
	C436.054565,226.723602 430.218658,203.879440 430.861542,179.868271 
	C431.308563,163.171585 434.212616,146.795898 439.266876,130.427734 
M443.927032,324.550995 
	C431.312195,330.067749 418.032532,333.542145 404.733246,337.246918 
	C406.995209,337.950562 409.214874,338.433777 411.450745,338.526306 
	C425.799438,339.120117 439.904633,341.099426 453.602966,345.572296 
	C455.240875,346.107086 465.380249,341.411926 465.950500,339.907410 
	C466.117981,339.465515 466.151978,338.914825 466.069702,338.445099 
	C464.366455,328.722137 469.127228,320.658997 472.830231,312.357544 
	C476.003906,305.242767 474.850037,300.335693 468.389832,295.339020 
	C468.137848,295.991028 467.775269,296.576355 467.690918,297.199341 
	C465.800415,311.166077 457.945648,320.037109 443.927032,324.550995 
M557.850159,319.789276 
	C560.264771,324.991577 561.715515,330.346100 561.393555,336.197998 
	C561.122314,341.127625 569.365967,347.063354 574.132690,345.361206 
	C580.926758,342.935211 588.003479,341.934906 595.017944,340.554535 
	C603.959534,338.794952 613.133667,339.129242 622.405090,337.736816 
	C621.872070,337.174927 621.696533,336.824249 621.436890,336.743347 
	C619.849670,336.248779 618.251526,335.784515 616.642334,335.366455 
	C601.470581,331.425201 586.518311,326.954315 572.643250,319.364380 
	C567.959412,316.802185 564.965454,313.306061 563.018311,308.441406 
	C561.908997,305.670074 561.607727,302.415802 559.377625,300.017639 
	C553.865051,305.145111 551.788635,310.441162 556.504822,316.822968 
	C556.987488,317.476074 557.196716,318.331238 557.850159,319.789276 
M356.145264,329.221130 
	C359.053223,330.257446 361.693237,328.981750 361.826935,326.387726 
	C362.070648,321.658325 357.522980,321.162354 354.094269,319.230774 
	C352.865814,323.042938 353.380859,326.036224 356.145264,329.221130 
M670.042053,320.694519 
	C669.280823,321.321381 668.477478,321.904266 667.767578,322.584717 
	C666.476440,323.822296 664.815125,325.025879 666.101807,327.144684 
	C667.092407,328.775970 668.539001,329.926544 670.589050,329.496368 
	C672.679016,329.057861 673.453308,327.362579 673.599670,325.466614 
	C673.760071,323.389435 674.161377,321.251129 673.229126,319.279633 
	C671.932068,318.753448 671.357422,319.799957 670.042053,320.694519 
M358.462341,343.242828 
	C356.355865,343.242828 354.249390,343.242828 350.757568,343.242828 
	C362.587372,348.214691 362.587372,348.214691 364.871429,343.249268 
	C362.846405,343.249268 361.079285,343.249268 358.462341,343.242828 
M668.248718,343.281433 
	C666.272705,343.548706 664.046265,342.589539 662.218262,344.290070 
	C665.591797,347.715271 666.284912,347.672668 672.722961,343.568756 
	C671.182373,343.462128 670.086792,343.386322 668.248718,343.281433 
z"/>
<path fill="#000000" opacity="1.000000" stroke="none" 
	d="
M771.907959,520.723816 
	C766.359863,527.682190 760.353699,533.663940 753.747681,539.059631 
	C750.729370,541.524963 747.442749,543.507141 743.596069,544.172363 
	C732.581421,546.077209 726.738403,540.122864 727.220764,527.135986 
	C722.341553,531.492676 717.798340,535.726929 713.055298,539.724060 
	C709.685547,542.563843 705.797913,544.352112 701.214905,544.382263 
	C692.464294,544.439819 687.929321,540.131531 687.654053,531.419922 
	C687.614258,530.158936 688.123962,528.791565 686.988892,527.331848 
	C682.088013,531.593750 677.403503,536.068970 671.742615,539.259399 
	C665.422913,542.821106 658.866699,545.422668 651.418030,545.310364 
	C639.509888,545.130798 634.094238,540.747925 631.698242,528.535889 
	C629.010132,531.101929 626.553711,533.462524 624.079895,535.804749 
	C620.022705,539.645996 615.430176,542.639099 609.966858,543.988281 
	C601.378723,546.109131 595.369141,541.143555 595.861633,532.271606 
	C596.209534,526.004395 598.693909,520.323425 601.362671,514.744446 
	C603.140869,511.027191 604.967834,507.333282 606.930359,503.306000 
	C603.924622,502.444977 602.337524,504.126068 600.685730,505.271545 
	C592.155029,511.187469 586.733337,519.933411 580.375732,527.820007 
	C577.867859,530.931091 575.578491,534.217773 573.090515,537.345703 
	C571.851685,538.903198 570.624023,540.680786 568.975159,541.653259 
	C566.237732,543.267700 563.047058,546.512451 560.062256,544.236267 
	C557.482178,542.268738 560.513794,539.048035 561.342773,536.546875 
	C564.112122,528.191772 567.213806,519.946777 570.548584,510.655670 
	C566.054626,514.960754 563.170654,519.590454 558.315613,522.872253 
	C556.903259,519.655945 558.350891,517.623962 559.829956,515.719971 
	C562.588867,512.168579 565.469238,508.711487 568.301941,505.217560 
	C569.854919,503.302155 571.813171,501.608673 570.832642,498.637299 
	C570.440491,497.448853 571.030945,495.945129 572.313782,495.886108 
	C577.158325,495.663269 577.853271,491.559784 579.348206,488.448425 
	C585.279602,476.103271 591.804565,464.140320 600.500977,453.479492 
	C604.869263,448.124512 609.881165,443.580200 616.307373,440.755219 
	C619.993225,439.134888 623.726013,438.900757 627.509827,440.134888 
	C632.513733,441.766907 634.847351,445.982605 633.541504,451.103607 
	C631.667725,458.451630 627.145752,464.241730 622.070068,469.583405 
	C612.519958,479.634064 602.057068,488.811462 590.701111,496.617004 
	C581.561890,502.898926 579.704834,512.246521 575.829529,521.958374 
	C578.764954,521.236084 579.818665,519.519897 581.050598,518.157349 
	C588.432251,509.993011 595.884033,501.901428 604.920593,495.494720 
	C606.807861,494.156677 608.858032,492.971741 610.982300,492.066071 
	C613.143799,491.144501 615.556702,490.591736 617.530884,492.556915 
	C619.378174,494.395752 619.453308,496.744629 618.803101,499.098480 
	C617.365234,504.304047 614.241760,508.709351 611.822144,513.445496 
	C608.689819,519.576660 605.980103,525.803894 606.145081,532.882019 
	C606.278015,538.584290 608.985657,540.225830 613.813721,537.144714 
	C622.307861,531.724060 629.522705,524.806030 635.845215,516.989258 
	C643.805054,507.148132 653.100403,498.957977 664.453491,493.221375 
	C667.455872,491.704224 670.598877,490.613800 673.963928,490.348541 
	C682.494263,489.676056 687.365112,496.506317 684.017761,504.419373 
	C682.894104,507.075775 681.108398,509.358093 679.033813,511.240723 
	C671.832947,517.775330 663.338867,521.793701 653.756409,523.474976 
	C651.922241,523.796814 650.029358,524.109741 649.013367,520.670654 
	C654.475586,519.536499 659.561096,517.365784 664.223755,514.297058 
	C668.820801,511.271637 673.561768,508.419037 676.847351,503.853760 
	C678.099121,502.114563 679.643250,499.976593 678.185425,497.917114 
	C676.532410,495.582123 674.137512,497.103973 672.319092,498.014557 
	C659.005798,504.681061 649.087585,514.695251 643.593689,528.621399 
	C640.448730,536.593384 645.094177,542.361450 653.451111,540.395996 
	C671.447998,536.163330 685.900696,527.086121 693.249573,509.002441 
	C701.422485,488.891266 710.694153,469.352386 724.561401,452.365234 
	C727.970154,448.189636 731.928101,444.691895 736.493958,441.838379 
	C739.751404,439.802551 743.270691,439.187958 747.029236,439.557739 
	C754.609314,440.303558 757.969666,445.157684 755.627319,452.471222 
	C753.092896,460.384094 747.895508,466.821564 743.085327,473.379761 
	C731.395874,489.316711 717.365479,503.071686 702.391846,515.886902 
	C697.463379,520.105042 695.127808,530.216187 697.882385,536.018616 
	C699.484985,539.394470 702.456360,539.735535 705.029236,538.236816 
	C716.195740,531.732300 726.593567,524.223816 731.784241,511.734802 
	C740.308167,491.225769 749.502991,471.109467 763.435303,453.556885 
	C766.871155,449.228333 770.669739,445.270996 775.415588,442.346649 
	C777.695068,440.942078 780.079712,439.852081 782.829712,439.577362 
	C793.988586,438.462463 799.163208,445.180847 794.339417,455.287689 
	C788.700562,467.102264 780.399902,477.170715 771.803955,486.943787 
	C762.547852,497.467499 752.452881,507.140228 741.744019,516.184265 
	C736.440491,520.663391 735.660889,526.759888 736.736328,533.046326 
	C737.748962,538.965393 741.335632,540.493896 746.562134,537.494202 
	C755.349304,532.450745 762.369385,525.353271 768.894409,517.714539 
	C770.106262,516.295837 770.859131,514.035828 773.543884,514.635742 
	C775.110413,517.072083 773.079529,518.625854 771.907959,520.723816 
M771.496582,457.974548 
	C758.857239,473.022705 750.353210,490.403076 742.168152,509.630432 
	C744.111389,508.073059 744.972290,507.409790 745.804443,506.712189 
	C759.584290,495.161072 770.232300,480.930695 780.288086,466.216583 
	C783.660828,461.281525 786.867981,456.212921 789.097046,450.617554 
	C789.725830,449.039032 790.236938,447.295166 788.714966,446.003143 
	C787.167908,444.689636 785.502197,445.560486 784.102905,446.452148 
	C779.442444,449.421814 775.363647,453.063751 771.496582,457.974548 
M714.257751,484.674408 
	C710.117249,492.018921 706.419739,499.561554 703.357117,507.948639 
	C706.559631,507.101715 708.132935,505.083374 709.884155,503.405365 
	C724.662109,489.245148 736.892090,473.087402 747.077393,455.377686 
	C748.723145,452.515991 751.993042,448.720642 748.477112,446.094879 
	C745.539062,443.900665 742.455261,447.539978 740.027344,449.684387 
	C729.121765,459.316742 721.307800,471.266144 714.257751,484.674408 
M605.581848,478.074738 
	C606.919312,476.824463 608.320068,475.634796 609.583740,474.313904 
	C616.386414,467.203308 623.018555,459.953400 627.010315,450.767944 
	C627.740479,449.087952 628.535950,447.103027 626.750122,445.736267 
	C625.233582,444.575592 623.552368,445.583527 622.118896,446.465240 
	C621.130615,447.073059 620.212158,447.799438 619.290161,448.508759 
	C610.439270,455.318054 603.850647,464.091064 598.076111,473.479889 
	C594.673584,479.012054 591.204712,484.581787 588.856689,491.620422 
	C595.336853,487.591888 600.250061,483.127808 605.581848,478.074738 
z"/>
<path fill="#000000" opacity="1.000000" stroke="none" 
	d="
M254.238159,493.034912 
	C244.021820,485.712067 242.237595,475.258453 249.528336,465.493652 
	C255.919556,456.933563 264.890564,451.673248 274.589508,447.912201 
	C295.759094,439.702972 317.481384,439.483093 339.399628,444.572815 
	C343.647064,445.559113 347.633057,447.246643 351.299988,449.632660 
	C364.586914,458.278351 366.489441,473.616974 355.591888,485.116608 
	C346.173157,495.055695 333.927032,499.702881 321.094269,503.216156 
	C310.271362,506.179169 299.205811,507.454346 288.051544,508.115417 
	C285.618011,508.259613 283.448029,508.520691 282.157166,510.995483 
	C278.304230,518.382080 274.392975,525.742920 271.600372,533.615295 
	C271.130920,534.938721 270.380188,536.421509 271.598328,538.415955 
	C276.959442,538.099304 277.800629,530.951660 282.677582,530.149780 
	C283.666901,530.991638 283.769257,531.869019 283.274719,532.581665 
	C280.153564,537.079712 277.527069,541.977173 273.111725,545.453186 
	C270.061737,547.854370 266.749237,547.441895 263.718231,545.762695 
	C260.832428,544.164001 262.145142,541.366455 262.662811,538.995544 
	C264.457672,530.774414 268.272308,523.349792 271.920746,515.864746 
	C272.939514,513.774597 274.004364,511.707031 275.010468,509.704010 
	C271.150909,505.336884 271.135864,505.286255 276.379303,503.728973 
	C277.821930,503.300537 278.684509,502.383728 279.270752,501.184296 
	C283.185913,493.174377 287.871124,485.723450 290.281555,476.768494 
	C292.749237,467.600677 300.073486,460.922729 309.607819,458.037933 
	C315.048126,456.391815 320.733917,460.086182 321.736786,465.422363 
	C313.962891,465.487091 309.223602,470.533295 304.651764,475.907745 
	C297.633453,484.158234 291.956573,493.254272 286.633850,503.158539 
	C292.651184,504.480957 297.763519,502.706482 302.874847,501.724060 
	C318.868378,498.650055 334.274323,494.000519 347.289398,483.607971 
	C349.362915,481.952240 351.347687,480.122650 353.090240,478.126190 
	C360.292175,469.874786 358.434326,459.930450 348.738800,454.750580 
	C343.353607,451.873566 337.436005,450.706787 331.434265,450.336639 
	C314.373596,449.284393 297.498840,450.267975 281.009247,455.321411 
	C273.595581,457.593414 266.714142,460.804932 260.580963,465.557220 
	C257.099426,468.254852 254.287323,471.535400 252.609970,475.640228 
	C249.814331,482.481781 251.152466,486.042419 257.550629,489.735809 
	C259.456329,490.835876 262.099976,491.165710 262.787384,494.369720 
	C259.699310,496.248444 257.175842,494.275970 254.238159,493.034912 
z"/>
<path fill="#000000" opacity="1.000000" stroke="none" 
	d="
M629.356140,78.309425 
	C645.836975,70.131699 662.509766,63.508041 679.910156,58.698578 
	C683.640259,57.667580 685.367249,58.398838 686.332886,62.227814 
	C694.893372,96.174088 697.841003,130.372604 691.341553,165.042938 
	C691.016418,166.777496 691.045288,168.655960 688.819702,170.410385 
	C688.517456,166.729752 688.090942,163.550888 688.020752,160.364197 
	C687.410217,132.639160 683.049866,105.409142 677.453247,78.324913 
	C676.582275,74.109772 675.017517,72.994255 670.669312,74.358482 
	C642.939148,83.058571 616.352173,94.429321 590.613647,107.862595 
	C589.080872,108.662575 587.681763,110.083862 584.778870,109.306938 
	C598.158569,96.375763 613.223145,86.911789 629.356140,78.309425 
z"/>
<path fill="#000000" opacity="1.000000" stroke="none" 
	d="
M432.113342,100.852493 
	C435.318726,103.813644 439.021942,105.779564 441.690918,109.996300 
	C438.290314,109.783905 436.291779,108.194069 434.197937,107.078568 
	C409.284943,93.806137 383.309326,83.120796 356.409302,74.588196 
	C351.943298,73.171593 350.074585,73.572281 348.974945,78.682945 
	C342.906281,106.887314 338.865051,135.315826 338.108948,164.184021 
	C338.065277,165.851624 338.817749,167.849915 336.635925,169.455368 
	C333.956329,163.808380 333.656097,157.821716 332.999725,152.041367 
	C329.540649,121.578667 332.557190,91.599022 340.299072,62.018642 
	C340.997009,59.351826 341.674377,57.451225 345.297699,58.449638 
	C376.782135,67.125267 405.966736,80.461441 432.113342,100.852493 
z"/>
<path fill="#000000" opacity="1.000000" stroke="none" 
	d="
M361.727844,534.642090 
	C362.554443,533.363037 363.225616,532.401306 363.748993,531.365051 
	C366.974030,524.979675 366.269745,522.401855 359.970764,518.698303 
	C355.951782,516.335266 351.818573,514.177429 348.359283,510.536194 
	C345.317963,512.708130 344.157654,516.136902 342.001007,518.752747 
	C341.004639,519.961304 340.022675,522.018433 338.086792,520.457825 
	C336.586792,519.248657 337.710693,517.675049 338.574432,516.456482 
	C342.645569,510.713348 345.233276,504.279541 348.112427,497.889282 
	C353.283691,486.411804 364.392517,482.312744 375.484741,478.810272 
	C380.149933,477.337219 385.016327,477.001068 389.731201,478.788727 
	C393.292694,480.139099 395.655365,482.517120 395.223389,486.709259 
	C394.752594,491.278595 391.218536,495.147644 386.978058,495.715607 
	C385.660156,493.171783 388.061768,491.809723 388.860443,489.971649 
	C390.423065,486.375305 389.150818,484.281342 385.306885,484.815369 
	C373.252838,486.489838 363.135468,491.851624 355.652893,501.559570 
	C351.868408,506.469574 352.577148,509.220520 357.912567,512.509521 
	C361.598267,514.781494 365.478271,516.741272 369.137360,519.052856 
	C376.009521,523.394287 377.340485,528.424316 372.629974,535.003296 
	C364.391174,546.510010 352.150482,550.273926 338.736877,551.209106 
	C336.402496,551.371826 334.636230,550.034058 333.560425,547.906860 
	C332.358887,545.531128 333.565704,543.707764 335.006104,542.024292 
	C337.700043,538.875793 340.837677,536.488770 345.159821,535.928833 
	C345.805969,538.890503 343.554962,539.140198 342.596191,540.327942 
	C341.418030,541.787476 338.872406,542.917053 340.333130,545.224976 
	C341.781281,547.513000 344.096985,546.547180 346.207245,545.826721 
	C352.402405,543.711792 357.185577,539.653015 361.727844,534.642090 
z"/>
</svg>